The.Hunger.Games.2012.CAM.XViD.AC3-26K

Imdb: 
http://www.imdb.com/title/tt1392170/

Plot:
Set in a future where the Capitol selects a boy and girl from the twelve districts to fight to the 

death on live television, Katniss Everdeen volunteers to take her younger sister's place for the 

latest match.

Sources:
VIDEO-RUSSIAN VOB FILES THNXS GUYS :d
AUDIO-INSPIRAL THNXS :d

Notes:
ENCODED THE VIDEO OF THE VOB FILES :) THE VIDEO IS NOT SO BAD :D FOR A FIRST CAM AUDIO IS GOOD ENOUGH 

:) SO FILTERED THE VIDEO TO MAKE IT LOOK NICE AND THEN MUXED INSPIRALS CAM TO OUR ENCODE SO ENJOY 

TURNED OUT NICE :p 

Greetz:
Xtreme 

Encode|FYA|ILLUMANTI|CM8|RX|VISION|HDSCENE|NIGHTMAREZ|xTriLL|DTRG|CRYS|REMIXHD|BIDA|RX|REFILL|INSPiRAL

|SIC|HOPE|Anonymous|GooN|P76|MIRAGE|ESCA|KoDeKinG

To all the people who have helped me :P you know who you are

Anything to offer email us @: 26k@hushmail.me

Video
ID : 0
Format : MPEG-4 Visual
Format profile : Advanced Simple@L5
Format settings, BVOP : 2
Format settings, QPel : No
Format settings, GMC : No warppoints
Format settings, Matrix : Default (MPEG)
Codec ID : XVID
Codec ID/Hint : XviD
Duration : 2h 7mn
Bit rate : 1 334 Kbps
Width : 720 pixels
Height : 304 pixels
Display aspect ratio : 2.35:1
Frame rate : 25.000 fps
Color space : YUV
Chroma subsampling : 4:2:0
Bit depth : 8 bits
Scan type : Progressive
Compression mode : Lossy
Bits/(Pixel*Frame) : 0.244
Stream size : 1.19 GiB (80%)
Writing library : XviD 1.2.1 (UTC 2008-12-04)

Audio
ID : 1
Format : AC-3
Format/Info : Audio Coding 3
Mode extension : CM (complete main)
Codec ID : 2000
Duration : 2h 7mn
Bit rate mode : Constant
Bit rate : 320 Kbps
Channel(s) : 2 channels
Channel positions : Front: L R
Sampling rate : 44.1 KHz
Bit depth : 16 bits
Compression mode : Lossy
Stream size : 292 MiB (19%)
Alignment : Aligned on interleaves
Interleave, duration : 70 ms (1.74 video frames)
Interleave, preload duration : 208 ms
Title : audio